HIERARCHY
ROOT hip
{
	OFFSET 0.000000 0.000000 0.000000 
	CHANNELS 6 Xposition Yposition Zposition Zrotation Yrotation Xrotation
	JOINT abdomen
	{
		OFFSET 0.000000 20.688101 -0.731520 
		CHANNELS 3 Zrotation Xrotation Yrotation
		JOINT chest
		{
			OFFSET 0.000000 11.704300 -0.487680 
			CHANNELS 3 Zrotation Xrotation Yrotation
			JOINT neck
			{
				OFFSET 0.000000 22.189400 -2.194560 
				CHANNELS 3 Zrotation Xrotation Yrotation
				JOINT head
				{
					OFFSET -0.243840 7.071330 1.219200 
					CHANNELS 3 Zrotation Xrotation Yrotation
					JOINT leftEye
					{
						OFFSET 4.145280 8.046740 8.046720 
						CHANNELS 3 Zrotation Xrotation Yrotation
						End Site
						{
							OFFSET 1.000000 0.000000 0.000000 
						}
					}
					JOINT rightEye
					{
						OFFSET -3.657600 8.046740 8.046720 
						CHANNELS 3 Zrotation Xrotation Yrotation
						End Site
						{
							OFFSET 1.000000 0.000000 0.000000 
						}
					}
				}
			}
			JOINT rCollar
			{
				OFFSET -2.682240 19.263399 -4.876800 
				CHANNELS 3 Zrotation Xrotation Yrotation
				JOINT rShldr
				{
					OFFSET -8.778240 -1.950730 1.463040 
					CHANNELS 3 Zrotation Xrotation Yrotation
					JOINT rForeArm
					{
						OFFSET -28.174200 -1.711500 0.487680 
						CHANNELS 3 Zrotation Xrotation Yrotation
						JOINT rHand
						{
							OFFSET -22.587900 0.773209 7.071360 
							CHANNELS 3 Zrotation Xrotation Yrotation
							JOINT rThumb1
							{
								OFFSET -1.219200 -0.487915 3.413760 
								CHANNELS 3 Zrotation Xrotation Yrotation
								JOINT rThumb2
								{
									OFFSET -3.370350 -0.524490 3.413760 
									CHANNELS 3 Zrotation Xrotation Yrotation
									End Site
									{
										OFFSET -1.782710 -1.182140 1.430490 
									}
								}
							}
							JOINT rIndex1
							{
								OFFSET -7.759470 0.938293 5.608320 
								CHANNELS 3 Zrotation Xrotation Yrotation
								JOINT rIndex2
								{
									OFFSET -2.540570 -0.884171 1.565380 
									CHANNELS 3 Zrotation Xrotation Yrotation
									End Site
									{
										OFFSET -1.625190 -0.234802 1.165020 
									}
								}
							}
							JOINT rMid1
							{
								OFFSET -8.247140 1.182130 3.413760 
								CHANNELS 3 Zrotation Xrotation Yrotation
								JOINT rMid2
								{
									OFFSET -3.101650 -0.590103 1.064700 
									CHANNELS 3 Zrotation Xrotation Yrotation
									End Site
									{
										OFFSET -2.485470 -0.328903 0.837420 
									}
								}
							}
							JOINT rRing1
							{
								OFFSET -8.828220 0.546677 1.516780 
								CHANNELS 3 Zrotation Xrotation Yrotation
								JOINT rRing2
								{
									OFFSET -2.609340 -0.819778 -0.019849 
									CHANNELS 3 Zrotation Xrotation Yrotation
									End Site
									{
										OFFSET -2.338420 -0.294052 0.168128 
									}
								}
							}
							JOINT rPinky1
							{
								OFFSET -8.272020 -0.047791 -0.458400 
								CHANNELS 3 Zrotation Xrotation Yrotation
								JOINT rPinky2
								{
									OFFSET -1.827340 -0.647385 -0.700984 
									CHANNELS 3 Zrotation Xrotation Yrotation
									End Site
									{
										OFFSET -1.692250 -0.517670 -0.607171 
									}
								}
							}
						}
					}
				}
			}
			JOINT lCollar
			{
				OFFSET 2.682240 19.263399 -4.876800 
				CHANNELS 3 Zrotation Xrotation Yrotation
				JOINT lShldr
				{
					OFFSET 8.778240 -1.950730 1.463040 
					CHANNELS 3 Zrotation Xrotation Yrotation
					JOINT lForeArm
					{
						OFFSET 28.174200 -1.711500 0.487680 
						CHANNELS 3 Zrotation Xrotation Yrotation
						JOINT lHand
						{
							OFFSET 22.587900 0.773209 7.071360 
							CHANNELS 3 Zrotation Xrotation Yrotation
							JOINT lThumb1
							{
								OFFSET 1.219200 -0.487915 3.413760 
								CHANNELS 3 Zrotation Xrotation Yrotation
								JOINT lThumb2
								{
									OFFSET 3.370350 -0.524490 3.413760 
									CHANNELS 3 Zrotation Xrotation Yrotation
									End Site
									{
										OFFSET 1.782710 -1.182140 1.430490 
									}
								}
							}
							JOINT lIndex1
							{
								OFFSET 7.759470 0.938293 5.608320 
								CHANNELS 3 Zrotation Xrotation Yrotation
								JOINT lIndex2
								{
									OFFSET 2.540570 -0.884171 1.565380 
									CHANNELS 3 Zrotation Xrotation Yrotation
									End Site
									{
										OFFSET 1.625190 -0.234802 1.165020 
									}
								}
							}
							JOINT lMid1
							{
								OFFSET 8.247140 1.182130 3.413760 
								CHANNELS 3 Zrotation Xrotation Yrotation
								JOINT lMid2
								{
									OFFSET 3.101650 -0.590103 1.064700 
									CHANNELS 3 Zrotation Xrotation Yrotation
									End Site
									{
										OFFSET 2.485470 -0.328903 0.837420 
									}
								}
							}
							JOINT lRing1
							{
								OFFSET 8.828220 0.546677 1.516780 
								CHANNELS 3 Zrotation Xrotation Yrotation
								JOINT lRing2
								{
									OFFSET 2.609340 -0.819778 -0.019849 
									CHANNELS 3 Zrotation Xrotation Yrotation
									End Site
									{
										OFFSET 2.338420 -0.294052 0.168128 
									}
								}
							}
							JOINT lPinky1
							{
								OFFSET 8.272020 -0.047791 -0.458400 
								CHANNELS 3 Zrotation Xrotation Yrotation
								JOINT lPinky2
								{
									OFFSET 1.827340 -0.647385 -0.700984 
									CHANNELS 3 Zrotation Xrotation Yrotation
									End Site
									{
										OFFSET 1.692250 -0.517670 -0.607171 
									}
								}
							}
						}
					}
				}
			}
		}
	}
	JOINT rButtock
	{
		OFFSET -8.778240 4.350840 1.219200 
		CHANNELS 3 Zrotation Xrotation Yrotation
		JOINT rThigh
		{
			OFFSET 0.000000 -1.706870 -2.194560 
			CHANNELS 3 Zrotation Xrotation Yrotation
			JOINT rShin
			{
				OFFSET 0.000000 -36.819901 0.731520 
				CHANNELS 3 Zrotation Xrotation Yrotation
				JOINT rFoot
				{
					OFFSET 0.731520 -45.110401 -5.120640 
					CHANNELS 3 Zrotation Xrotation Yrotation
					End Site
					{
						OFFSET -1.122100 -3.699640 12.103000 
					}
				}
			}
		}
	}
	JOINT lButtock
	{
		OFFSET 8.778240 4.350840 1.219200 
		CHANNELS 3 Zrotation Xrotation Yrotation
		JOINT lThigh
		{
			OFFSET 0.000000 -1.706870 -2.194560 
			CHANNELS 3 Zrotation Xrotation Yrotation
			JOINT lShin
			{
				OFFSET 0.000000 -36.819901 0.731520 
				CHANNELS 3 Zrotation Xrotation Yrotation
				JOINT lFoot
				{
					OFFSET -0.731520 -45.110401 -5.120640 
					CHANNELS 3 Zrotation Xrotation Yrotation
					End Site
					{
						OFFSET 1.122100 -3.699640 12.103000 
					}
				}
			}
		}
	}
}
MOTION
Frames: 6
Frame Time: 0.040000
0.000000 0.000000 -190.000000 0.000000 0.000000 0.000000 -0.821200 9.596300 -1.899100 -0.010200 -0.011800 0.050200 -6.620100 -1.038500 -2.751300 16.701000 -3.255200 -5.232400 0.000000 0.000000 0.000000 0.000000 0.000000 0.000000 0.000000 0.000000 0.000000 71.606400 30.881300 -0.951800 -13.581300 -8.661900 29.508900 6.472500 26.996599 5.232000 0.000000 0.000000 0.000000 0.000000 0.000000 0.000000 0.000000 0.000000 0.000000 0.023600 0.013400 0.013700 0.000000 0.000000 0.000000 0.030000 0.008600 0.015800 0.000000 0.000000 0.000000 0.015500 0.020900 0.035200 0.000000 0.000000 0.000000 0.027700 -0.022300 -0.029400 0.000000 0.000000 0.000000 -75.974602 22.149500 10.459800 14.812600 -9.206500 -23.107401 -13.711600 3.231300 -12.166400 0.000000 0.000000 0.000000 0.000000 0.000000 0.000000 0.000000 0.000000 0.000000 -0.013300 0.006100 -0.005200 0.000000 0.000000 0.000000 -0.033000 0.030300 -0.004900 0.000000 0.000000 0.000000 -0.030200 0.004100 -0.032500 0.000000 0.000000 0.000000 -0.003800 -0.018500 0.013800 0.000000 0.000000 0.000000 -6.459700 -10.209400 5.430800 1.970400 29.385900 -2.019200 -1.024100 -8.301400 -7.507000 0.000000 0.000000 0.000000 -2.347700 -13.182900 -14.378600 5.980000 27.498100 -1.268700 2.615400 -11.319100 5.570800 
0.000000 0.000000 -190.000000 0.000000 0.000000 0.000000 -2.010100 8.910700 -1.882800 -0.010200 -0.011800 0.050200 -6.286200 1.369800 -2.606800 13.559800 -0.677100 -4.818000 0.000000 0.000000 0.000000 0.000000 0.000000 0.000000 0.000000 0.000000 0.000000 62.992699 24.143000 -3.070400 -14.888500 -12.703700 34.873501 5.905200 29.261499 6.173000 0.000000 0.000000 0.000000 0.000000 0.000000 0.000000 0.000000 0.000000 0.000000 0.023600 0.013400 0.013700 0.000000 0.000000 0.000000 0.030000 0.008600 0.015800 0.000000 0.000000 0.000000 0.015500 0.020900 0.035200 0.000000 0.000000 0.000000 0.027700 -0.022300 -0.029400 0.000000 0.000000 0.000000 -75.858902 21.357300 9.705500 14.372900 -9.716300 -23.080799 -13.592800 3.066800 -13.071800 0.000000 0.000000 0.000000 0.000000 0.000000 0.000000 0.000000 0.000000 0.000000 -0.013300 0.006100 -0.005200 0.000000 0.000000 0.000000 -0.033000 0.030300 -0.004900 0.000000 0.000000 0.000000 -0.030200 0.004100 -0.032500 0.000000 0.000000 0.000000 -0.003800 -0.018500 0.013800 0.000000 0.000000 0.000000 -5.348700 -11.118900 4.978100 1.793400 28.995600 -2.043200 -1.174800 -8.412900 -7.699300 0.000000 0.000000 0.000000 -2.247800 -10.256100 -12.891700 5.155400 19.361000 -1.076700 2.763100 -11.378400 6.265400 
0.000000 0.000000 -190.000000 0.000000 0.000000 0.000000 -2.139000 9.125400 -2.288800 -0.010200 -0.011800 0.050100 -7.015700 1.680200 -2.604100 15.953300 -1.430600 -5.124700 0.000000 0.000000 0.000000 0.000000 0.000000 0.000000 0.000000 0.000000 0.000000 63.033401 21.131399 -6.690300 -14.860300 -11.412500 36.562698 5.926900 30.957899 5.692400 0.000000 0.000000 0.000000 0.000000 0.000000 0.000000 0.000000 0.000000 0.000000 0.023600 0.013400 0.013700 0.000000 0.000000 0.000000 0.030000 0.008500 0.015800 0.000000 0.000000 0.000000 0.015400 0.020900 0.035200 0.000000 0.000000 0.000000 0.027700 -0.022300 -0.029400 0.000000 0.000000 0.000000 -75.964104 20.686501 8.765900 14.757900 -9.240400 -23.883101 -13.671100 3.123100 -13.140000 0.000000 0.000000 0.000000 0.000000 0.000000 0.000000 0.000000 0.000000 0.000000 -0.013300 0.006100 -0.005200 0.000000 0.000000 0.000000 -0.032900 0.030200 -0.004900 0.000000 0.000000 0.000000 -0.030100 0.004100 -0.032500 0.000000 0.000000 0.000000 -0.003800 -0.018500 0.013800 0.000000 0.000000 0.000000 -4.270000 -3.854500 3.552700 2.700300 26.527201 -2.071000 -1.242600 -8.431500 -8.055300 0.000000 0.000000 0.000000 1.875900 -13.583400 -8.498700 5.603400 18.986401 -1.348000 2.799400 -12.348800 6.955500 
0.000000 0.000000 -190.000000 0.000000 0.000000 0.000000 -3.708000 8.952000 -2.459200 -0.010200 -0.011800 0.050100 -7.175700 3.214600 -2.626900 13.995000 0.765500 -4.924300 0.000000 0.000000 0.000000 0.000000 0.000000 0.000000 0.000000 0.000000 0.000000 56.649200 18.591801 -2.904200 -21.940599 -8.849500 26.451200 4.661600 34.149601 7.768700 0.000000 0.000000 0.000000 0.000000 0.000000 0.000000 0.000000 0.000000 0.000000 0.023600 0.013400 0.013700 0.000000 0.000000 0.000000 0.030000 0.008500 0.015800 0.000000 0.000000 0.000000 0.015400 0.020900 0.035200 0.000000 0.000000 0.000000 0.027700 -0.022300 -0.029400 0.000000 0.000000 0.000000 -74.781197 20.105000 8.291800 15.309200 -9.273800 -24.800200 -12.546700 1.799400 -13.216200 0.000000 0.000000 0.000000 0.000000 0.000000 0.000000 0.000000 0.000000 0.000000 -0.013300 0.006100 -0.005200 0.000000 0.000000 0.000000 -0.032900 0.030200 -0.004900 0.000000 0.000000 0.000000 -0.030100 0.004100 -0.032500 0.000000 0.000000 0.000000 -0.003800 -0.018500 0.013800 0.000000 0.000000 0.000000 -3.512800 -2.201400 4.158000 2.768300 25.404400 -2.137100 -1.342700 -8.530300 -8.080700 0.000000 0.000000 0.000000 2.074200 -13.027500 -7.848200 5.989100 19.732599 -1.362600 2.836300 -12.934100 8.162700 
0.000000 0.000000 -190.000000 0.000000 0.000000 0.000000 -4.630000 8.497700 -2.215700 -0.010200 -0.011800 0.050100 -6.703400 3.102900 -2.593200 9.325400 2.748200 -9.555000 0.000000 0.000000 0.000000 0.000000 0.000000 0.000000 0.000000 0.000000 0.000000 45.627701 8.434300 -3.481700 -23.456600 -9.131400 25.668800 3.673500 50.776600 7.573600 0.000000 0.000000 0.000000 0.000000 0.000000 0.000000 0.000000 0.000000 0.000000 0.023600 0.013400 0.013700 0.000000 0.000000 0.000000 0.030000 0.008500 0.015800 0.000000 0.000000 0.000000 0.015500 0.020900 0.035200 0.000000 0.000000 0.000000 0.027700 -0.022300 -0.029400 0.000000 0.000000 0.000000 -73.626900 19.465200 8.431500 15.082000 -10.758700 -24.812000 -11.958600 2.500100 -13.623800 0.000000 0.000000 0.000000 0.000000 0.000000 0.000000 0.000000 0.000000 0.000000 -0.013300 0.006100 -0.005200 0.000000 0.000000 0.000000 -0.033000 0.030200 -0.004900 0.000000 0.000000 0.000000 -0.030100 0.004100 -0.032500 0.000000 0.000000 0.000000 -0.003800 -0.018500 0.013800 0.000000 0.000000 0.000000 -4.310300 -10.064600 5.220200 1.717600 29.741301 -2.136500 -1.408200 -8.744800 -7.765900 0.000000 0.000000 0.000000 -1.362700 -8.681700 -13.781700 6.157600 17.621300 -1.121200 2.885300 -12.743200 9.461800 
0.000000 0.000000 -190.000000 0.000000 0.000000 0.000000 -5.402200 8.249200 -2.113300 -0.010200 -0.011800 0.050100 -7.067500 3.382400 -3.549500 8.359800 2.887000 -10.382900 0.000000 0.000000 0.000000 0.000000 0.000000 0.000000 0.000000 0.000000 0.000000 37.901199 0.970700 3.190500 -25.337299 -8.919200 28.234699 2.602100 49.701000 10.096200 0.000000 0.000000 0.000000 0.000000 0.000000 0.000000 0.000000 0.000000 0.000000 0.023600 0.013400 0.013700 0.000000 0.000000 0.000000 0.030000 0.008500 0.015800 0.000000 0.000000 0.000000 0.015500 0.020900 0.035200 0.000000 0.000000 0.000000 0.027700 -0.022300 -0.029400 0.000000 0.000000 0.000000 -72.221802 18.638000 7.475900 15.277700 -11.014100 -24.711100 -10.815700 2.793000 -12.946600 0.000000 0.000000 0.000000 0.000000 0.000000 0.000000 0.000000 0.000000 0.000000 -0.013300 0.006100 -0.005200 0.000000 0.000000 0.000000 -0.033000 0.030200 -0.004900 0.000000 0.000000 0.000000 -0.030100 0.004100 -0.032500 0.000000 0.000000 0.000000 -0.003800 -0.018500 0.013800 0.000000 0.000000 0.000000 -3.692500 -8.350200 5.722700 1.710700 29.262899 -2.220800 -1.536600 -8.786600 -7.740900 0.000000 0.000000 0.000000 -1.168300 -6.464100 -14.444700 6.390100 18.059099 -1.109300 2.919500 -13.284800 10.429700 
